<svg width="19" height="19" viewBox="0 0 19 19" fill="none" xmlns="http://www.w3.org/2000/svg">
<path d="M0.599816 3.19618C0.766879 1.77026 2.48399 -0.167716 3.84673 0.0473254L3.84455 0.0449751C5.17076 0.31696 6.22059 2.78039 6.81256 3.88809C7.23201 4.69178 6.95964 5.50606 6.56841 5.84966C6.04063 6.30875 5.21532 6.94219 5.38848 7.57821C5.69633 8.70888 9.35131 12.6534 11.149 13.7748C11.8294 14.1992 12.3228 13.0798 12.7442 12.5062C13.0503 12.0651 13.8054 11.8014 14.5484 12.2369C15.6581 12.9343 16.7034 13.7448 17.6701 14.6573C18.1528 15.0927 18.2661 15.7363 17.9316 16.4165C17.3424 17.6146 15.6383 19.1944 14.4013 18.8734C12.2408 18.3128 3.50334 14.6573 0.69679 4.06695C0.538954 3.56594 0.578691 3.37654 0.599816 3.19618Z" fill="#FAFAFA"/>
</svg>
