<?xml version="1.0" encoding="UTF-8" standalone="no"?>
<svg
   width="31.502155"
   height="30.0044"
   viewBox="0 0 31.502155 30.0044"
   fill="none"
   version="1.1"
   id="svg1"
   sodipodi:docname="lupa.svg"
   inkscape:version="1.3.2 (091e20e, 2023-11-25, custom)"
   xmlns:inkscape="http://www.inkscape.org/namespaces/inkscape"
   xmlns:sodipodi="http://sodipodi.sourceforge.net/DTD/sodipodi-0.dtd"
   xmlns="http://www.w3.org/2000/svg"
   xmlns:svg="http://www.w3.org/2000/svg">
  <defs
     id="defs1" />
  <sodipodi:namedview
     id="namedview1"
     pagecolor="#ffffff"
     bordercolor="#000000"
     borderopacity="0.25"
     inkscape:showpageshadow="2"
     inkscape:pageopacity="0.0"
     inkscape:pagecheckerboard="0"
     inkscape:deskcolor="#d1d1d1"
     inkscape:zoom="14.141026"
     inkscape:cx="3.1468722"
     inkscape:cy="15.310063"
     inkscape:window-width="1920"
     inkscape:window-height="1057"
     inkscape:window-x="-8"
     inkscape:window-y="-8"
     inkscape:window-maximized="1"
     inkscape:current-layer="svg1" />
  <path
     d="m 25.596764,12.1875 c 0,2.6895 -0.916839,5.1738 -2.461247,7.1895 l 7.789817,7.4238 c 0.769094,0.7324 0.769094,1.9219 0,2.6543 -0.769175,0.7324 -2.018257,0.7324 -2.787351,0 L 20.348165,22.0313 C 18.23152,23.5078 15.622609,24.375 12.798422,24.375 5.7285053,24.375 0,18.9199 0,12.1875 0,5.45508 5.7285053,0 12.798422,0 19.868259,0 25.596764,5.45508 25.596764,12.1875 Z M 12.798422,20.625 c 1.163538,0 2.315685,-0.2182 3.390688,-0.6423 1.075004,-0.424 2.05178,-1.0455 2.874512,-1.829 0.822812,-0.7835 1.475424,-1.7136 1.920757,-2.7373 0.445252,-1.0237 0.674421,-2.1209 0.674421,-3.2289 0,-1.108 -0.229169,-2.20521 -0.674421,-3.22889 C 20.539046,7.93492 19.886434,7.00478 19.063622,6.22129 18.24089,5.43779 17.264114,4.81629 16.18911,4.39227 15.114107,3.96824 13.96196,3.75 12.798422,3.75 11.634805,3.75 10.482657,3.96824 9.407654,4.39227 8.3326505,4.81629 7.355882,5.43779 6.5331182,6.22129 5.7103544,7.00478 5.0577025,7.93492 4.6124258,8.95861 4.1671411,9.98229 3.9379637,11.0795 3.9379637,12.1875 c 0,1.108 0.2291774,2.2052 0.6744621,3.2289 0.4452767,1.0237 1.0979286,1.9538 1.9206924,2.7373 0.8227638,0.7835 1.7995323,1.405 2.8745358,1.829 1.075003,0.4241 2.227151,0.6423 3.390768,0.6423 z"
     fill="#c3c3c3"
     id="path1"
     style="stroke-width:0.89877" />
</svg>
