<svg width="21" height="16" viewBox="0 0 21 16" fill="none" xmlns="http://www.w3.org/2000/svg">
<path fill-rule="evenodd" clip-rule="evenodd" d="M19.1211 13.0963C19.1211 13.2283 19.0966 13.3533 19.0615 13.4723L13.478 7.24022L19.1211 2.68552V13.0963ZM2.54044 14.3625L8.19857 8.1056L10.3429 9.7876L12.3945 8.09519L18.1455 14.3625C18.0558 14.3839 2.6301 14.3839 2.54044 14.3625ZM1.56481 13.0963V2.68552L7.2079 7.24022L1.62438 13.4723C1.58926 13.3533 1.56481 13.2283 1.56481 13.0963ZM18.4941 1.38418L10.3429 7.89089L2.19182 1.38418H18.4941ZM17.8671 0.08284H2.81883C1.43377 0.08284 0.310791 1.24819 0.310791 2.68552V13.0963C0.310791 14.5336 1.43377 15.6989 2.81883 15.6989H17.8671C19.2521 15.6989 20.3751 14.5336 20.3751 13.0963V2.68552C20.3751 1.24819 19.2521 0.08284 17.8671 0.08284Z" fill="#FAFAFA"/>
</svg>
