<svg width="19" height="19" viewBox="0 0 19 19" fill="none" xmlns="http://www.w3.org/2000/svg">
<path d="M9.6042 9.5C10.9726 9.5 12.2849 8.99956 13.2525 8.10876C14.2201 7.21796 14.7637 6.00978 14.7637 4.75C14.7637 3.49022 14.2201 2.28204 13.2525 1.39124C12.2849 0.500445 10.9726 0 9.6042 0C8.23582 0 6.92348 0.500445 5.95588 1.39124C4.98829 2.28204 4.4447 3.49022 4.4447 4.75C4.4447 6.00978 4.98829 7.21796 5.95588 8.10876C6.92348 8.99956 8.23582 9.5 9.6042 9.5ZM7.7621 11.2812C3.7917 11.2812 0.575073 14.2426 0.575073 17.8979C0.575073 18.5064 1.11118 19 1.77224 19H17.4362C18.0972 19 18.6333 18.5064 18.6333 17.8979C18.6333 14.2426 15.4167 11.2812 11.4463 11.2812H7.7621Z" fill="#03579B"/>
</svg>
